<svg xmlns="http://www.w3.org/2000/svg" width="691.089" height="756.358" viewBox="0 0 691.089 756.358"><g transform="translate(0 0)"><circle cx="143.892" cy="143.892" r="143.892" transform="translate(35.216 38.079)" fill="#fff"/><path d="M394.08,55.6,116.931,208.265c-32.016,41.048,576.322,43.585,571.3.151L419.482,55.753a26.626,26.626,0,0,0-25.4-.151Z" fill="#ffe7ab"/><path d="M394.08,55.6,116.931,208.265c-32.016,41.048,576.322,43.585,571.3.151L419.482,55.753a26.626,26.626,0,0,0-25.4-.151Z" opacity="0.2" style="isolation:isolate"/><path d="M687.083,756.357l-70.5-1.5H133.164L0,751.85c441.478-104.337,305.737-95.353,687.083,4.508Z" fill="#f2f2f2" opacity="0.8" style="isolation:isolate"/><path d="M622.18,751.85l-5.6,3.005H133.164c330.454-68.213,132.336-62.207,489.015-3.005Z" fill="#e6e6e6"/><path d="M388.6,42.857H409.4L402.387,3.309C401.953.866,400.292,0,399,0s-2.953.866-3.387,3.31L388.6,42.857Z" fill="#3f3d56"/><rect width="22.94" height="559.514" transform="translate(386.624 173.344)" fill="#3f3d56"/><path d="M398.16,260.688a36.568,36.568,0,0,1-25.943-10.7l-57.9-57.481,4.73-4.765,57.9,57.481a30.124,30.124,0,0,0,42.845-.4l55.324-57.033,4.819,4.675L424.611,249.5a36.578,36.578,0,0,1-26.094,11.187h-.357Z" fill="#3f3d56"/><path d="M406.182,216.8c-28.488,0-57.2-.1-85.07-.295-59.046-.42-109.458-1.249-145.785-2.4-61.919-1.96-62.578-4.187-62.86-5.138-.064-.22-.087-.646.5-1.03L389.351,26.184a19.518,19.518,0,0,1,21.786.156L690.568,208.092c.583.4.554.823.485,1.043-.349,1.117-1.407,4.517-124.1,6.514-46.681.76-103.256,1.156-160.773,1.156Z" fill="#ffe7ab"/><path d="M459.394,486.494l-35.029.038c-3.922,8.717,1.437,18.912,8.29,25.576s15.445,11.776,20.506,19.885c11.229,17.995.647,41.659,4.356,62.543,4.994,28.122,34.476,45.819,43.454,72.933a54.677,54.677,0,0,1-6.092,46.453c-1.636,2.494-3.525,4.956-4.1,7.884a9.507,9.507,0,0,0,16.124,8.475c-2.771,3.149-1.863,8.466,1.248,11.28s7.745,3.414,11.85,2.547c13.3-2.809,20-18.173,20.534-31.756s-2.871-27.346-.211-40.678c1.7,19.133,23.344,31.283,25.04,50.415.314,3.545-19.28,14.21-17.456,17.267,4.61,7.728,15.6,7.754,24.546,6.828,15.409-1.594,32.521-4.077,42.187-16.183,6.512-8.156,8.2-19.134,8.413-29.568a133.313,133.313,0,0,0-22.881-77.126c-20.4-29.985-52.821-51.236-68.833-83.775-5.442-11.059-8.772-23.05-14.067-34.18s-13.083-21.78-24.351-26.774-26.438-2.531-32.94,7.939" fill="#3f3d56"/><path d="M568.011,725.878a4.76,4.76,0,0,1-2.024-.449,1,1,0,1,1,.845-1.812,3.154,3.154,0,0,0,2.862-.2,5.613,5.613,0,0,0,2.788-3.909c.46-3.036-1.062-6.138-2.4-8.875-3.915-7.979-7.785-16.525-8.366-25.555-.655-10.182,3.548-19.667,10.708-24.163,5.323-3.342,12.359-4.216,19.814-2.464,6.386,1.5,12.27,4.652,18.236,8.023a1,1,0,0,1-.984,1.741c-6.058-3.423-11.573-6.374-17.71-7.817-6.93-1.63-13.427-.844-18.292,2.21-6.547,4.111-10.385,12.88-9.776,22.341.557,8.665,4.339,17,8.165,24.8,1.4,2.852,3.139,6.4,2.586,10.055a7.6,7.6,0,0,1-3.821,5.372,5.56,5.56,0,0,1-2.628.7h0Z" fill="#2f2e41"/><path d="M509.734,503.9a26.571,26.571,0,0,1-6.244,31.183,63.616,63.616,0,0,0-5.624,4.734c-1.665,1.8-2.887,4.241-2.467,6.657-5.681-5.636-11.474-11.427-14.91-18.654s-4.107-16.3.365-22.937c2.134-3.166,5.243-5.54,7.665-8.492s4.168-6.971,2.859-10.558" fill="#2f2e41"/><path d="M611.905,699.811c-2.717,8.308,1.757,17.868,9.1,22.614s16.824,5.238,25.3,3.091a46.474,46.474,0,0,0,33.308-34.724c1.442-6.88,1.341-14.254,4.606-20.479,2.052-3.913,5.439-7.448,5.537-11.865a9.929,9.929,0,0,0-5.429-8.667,13.783,13.783,0,0,0-10.472-.641c-8.156,2.592-13.162,10.852-15.757,19.007s-3.563,16.875-7.335,24.557-11.568,14.39-20.046,13.218c-7.331-1.014-13.536-7.623-20.882-6.723" fill="#3f3d56"/><path d="M202.232,596.143c-9.917,1.52-17.171,7.869-16.2,14.18s9.791,10.193,19.712,8.671a25.109,25.109,0,0,0,11.026-4.364L288.5,603.822l2.7-24.782L214.063,597a25.109,25.109,0,0,0-11.831-.86h0Z" fill="#ffb6b6"/><path d="M382.945,544.472l-16.261,34.506L284.939,606.5h0l3.983-28.045h0L364.357,542.8Z" fill="#e6e6e6"/><path d="M232.175,675.49l-14.6,36.927-18.893-12.882,11.164-38.644Z" fill="#ffb6b6"/><path d="M171.2,661.75l-38.644,36.926,15.457,16.317,39.5-30.916Z" fill="#ffb6b6"/><path d="M390.188,541.523l-.43-3.006L379.883,519.2l-32.633,8.587,6.011,26.622Z" fill="#ffb6b6"/><path d="M376.448,670.337l1,12.9s4.149,54.085-29.343,58.379-48.091,8.588-67.842-24.9l-30.915-54.961-18.058,21.486-24.022-18.91s17.175-66.984,30.915-69.56a31.345,31.345,0,0,1,5.126-.518,35.383,35.383,0,0,1,28.9,14.444l38.965,52.2,14.17-6.441,51.1,15.887h0Z" fill="#2f2e41"/><path d="M190.955,710.7l8.677-12.8,19.915,9.455s6.617,23.1-1.112,25.677-29.2-.859-29.2-.859-39.5,8.588-40.362.859,18.034-9.446,18.034-9.446L190.955,710.7h0Z" fill="#ffb6b6"/><path d="M275.113,700.394l-59.684-37.606-30.486,27.3-20.61-24.045s37.786-55.82,48.95-58.4,29.2-4.294,29.2-4.294l54.961,50.667-22.328,46.373h0Z" fill="#2f2e41"/><path d="M136.72,695.38l12.621,18-.494,5.554s-5.124,22.318-17.147,14.768-12.882-9.267-12.882-9.267-34.35,7.729-37.786-6.011,6.011-11.164,6.011-11.164l8.577,5.153,33.435-11.177,7.663-5.86h0Z" fill="#ffb6b6"/><circle cx="27.48" cy="27.48" r="27.48" transform="translate(330.075 482.268)" fill="#ffb6b6"/><path d="M351.114,548.822l39.5-12.023s15.458,36.068,12.882,52.385-26.048,94.052-26.048,94.052l-52.1-28.786s-.859-17.175-3.435-24.9-10.734-31.345,7.3-51.1,21.9-29.627,21.9-29.627h0Z" fill="#e6e6e6"/><path d="M264.17,729.147c-6.429,7.7-7.666,17.262-2.764,21.353s14.086,1.162,20.516-6.543a25.107,25.107,0,0,0,5.378-10.568l60.857-68.239L329.3,654.955l-55.69,67.007a25.109,25.109,0,0,0-9.439,7.184h0Z" fill="#ffb6b6"/><path d="M381.415,566.148l9.337,36.984-45.7,73.152,4.124-.941L324.2,656.994l6.127-4.909,35.663-75.428Z" fill="#e6e6e6"/><path d="M332.221,505.025c7.048-.017,7.448.03,8.588,0,8.741-.23,11.027-3.67,15.458-3.435,7.908.419-2.529,40.066-6.87,58.4-4.257,17.977,10.13,34.085,11.164,35.209,14.6,15.882,40.254,18.786,44.656,12.023,3.563-5.474-9.063-13.8-6.011-25.763,2.983-11.7,16.759-10.451,20.61-21.469,4.033-11.539-9.52-17.359-18.034-45.515-4.89-16.17-4.025-19.183-8.588-29.2C381,458.5,321.216,469.9,327.927,494.72c1.3,4.8-2.157,10.321,4.294,10.305h0Z" fill="#2f2e41"/></g></svg>